<?xml version="1.0" encoding="UTF-8"?>
<!DOCTYPE svg PUBLIC "-//W3C//DTD SVG 1.1//EN" "http://www.w3.org/Graphics/SVG/1.1/DTD/svg11.dtd">
<svg xmlns="http://www.w3.org/2000/svg" version="1.1" width="2880px" height="1920px" style="shape-rendering:geometricPrecision; text-rendering:geometricPrecision; image-rendering:optimizeQuality; fill-rule:evenodd; clip-rule:evenodd" xmlns:xlink="http://www.w3.org/1999/xlink">
<g><path style="opacity:1" fill="#fe681f" d="M -0.5,-0.5 C 959.5,-0.5 1919.5,-0.5 2879.5,-0.5C 2879.5,212.833 2879.5,426.167 2879.5,639.5C 1919.5,639.5 959.5,639.5 -0.5,639.5C -0.5,426.167 -0.5,212.833 -0.5,-0.5 Z"/></g>
<g><path style="opacity:1" fill="#fefefe" d="M -0.5,639.5 C 959.5,639.5 1919.5,639.5 2879.5,639.5C 2879.5,852.833 2879.5,1066.17 2879.5,1279.5C 1919.5,1279.5 959.5,1279.5 -0.5,1279.5C -0.5,1066.17 -0.5,852.833 -0.5,639.5 Z"/></g>
<g><path style="opacity:1" fill="#0a048d" d="M 1419.5,663.5 C 1527.79,660.072 1614.63,701.072 1680,786.5C 1741.35,877.025 1752.02,973.358 1712,1075.5C 1671.07,1165.73 1602.57,1223.23 1506.5,1248C 1390.09,1270.42 1292.25,1237.92 1213,1150.5C 1148.41,1069.01 1129.07,977.672 1155,876.5C 1188.17,775.333 1255.33,708.167 1356.5,675C 1377.3,669.249 1398.3,665.415 1419.5,663.5 Z"/></g>
<g><path style="opacity:1" fill="#fcfcfd" d="M 1418.5,703.5 C 1432.85,703.32 1447.18,703.653 1461.5,704.5C 1463.49,716.16 1469.82,719.327 1480.5,714C 1482.45,712.266 1483.45,710.099 1483.5,707.5C 1497.81,709.912 1511.81,713.579 1525.5,718.5C 1526.02,722.71 1527.19,726.71 1529,730.5C 1536.41,736.432 1542.74,735.432 1548,727.5C 1561.7,733.599 1574.54,741.099 1586.5,750C 1583.22,756.071 1584.22,761.404 1589.5,766C 1594.92,768.417 1599.76,767.583 1604,763.5C 1609.17,768 1614.33,772.5 1619.5,777C 1624.83,783 1630.17,789 1635.5,795C 1631.24,799.168 1630.4,804.002 1633,809.5C 1637.53,814.816 1642.86,815.816 1649,812.5C 1657.26,824.672 1664.76,837.338 1671.5,850.5C 1662.21,857.708 1662.21,864.874 1671.5,872C 1674.55,872.179 1677.55,872.679 1680.5,873.5C 1685.69,887.107 1689.35,901.107 1691.5,915.5C 1685.47,916.365 1682.47,919.865 1682.5,926C 1682.49,928.3 1682.99,930.466 1684,932.5C 1687.1,935.55 1690.77,937.55 1695,938.5C 1695.68,952.848 1695.51,967.181 1694.5,981.5C 1683.56,983.044 1680.06,989.044 1684,999.5C 1685.88,1002.02 1688.38,1003.36 1691.5,1003.5C 1689.09,1017.81 1685.42,1031.81 1680.5,1045.5C 1667.04,1045.79 1662.54,1052.13 1667,1064.5C 1668.41,1065.79 1669.91,1066.95 1671.5,1068C 1664.88,1081.41 1657.38,1094.24 1649,1106.5C 1642.86,1103.18 1637.53,1104.18 1633,1109.5C 1630.58,1114.92 1631.42,1119.76 1635.5,1124C 1630.67,1129.5 1625.83,1135 1621,1140.5C 1615.33,1145.5 1609.67,1150.5 1604,1155.5C 1596.54,1149.42 1590.21,1150.42 1585,1158.5C 1584.07,1162.24 1584.57,1165.74 1586.5,1169C 1574.21,1177.4 1561.38,1184.9 1548,1191.5C 1541,1182.17 1534,1182.17 1527,1191.5C 1526.82,1194.55 1526.32,1197.55 1525.5,1200.5C 1511.81,1205.42 1497.81,1209.09 1483.5,1211.5C 1483.36,1208.38 1482.02,1205.88 1479.5,1204C 1469.04,1200.06 1463.04,1203.56 1461.5,1214.5C 1447.18,1215.46 1432.84,1215.63 1418.5,1215C 1415.22,1201.93 1408.05,1199.1 1397,1206.5C 1395.99,1208.02 1395.49,1209.69 1395.5,1211.5C 1381.1,1209.4 1367.1,1205.73 1353.5,1200.5C 1353.21,1187.04 1346.87,1182.54 1334.5,1187C 1333.21,1188.41 1332.05,1189.91 1331,1191.5C 1317.3,1185.4 1304.46,1177.9 1292.5,1169C 1295.82,1162.86 1294.82,1157.53 1289.5,1153C 1284,1150.4 1279.17,1151.24 1275,1155.5C 1269.5,1150.67 1264,1145.83 1258.5,1141C 1253.5,1135.33 1248.5,1129.67 1243.5,1124C 1249.58,1116.54 1248.58,1110.21 1240.5,1105C 1236.76,1104.07 1233.26,1104.57 1230,1106.5C 1221.6,1094.21 1214.1,1081.38 1207.5,1068C 1215.43,1062.74 1216.43,1056.41 1210.5,1049C 1206.71,1047.19 1202.71,1046.02 1198.5,1045.5C 1193.58,1031.81 1189.91,1017.81 1187.5,1003.5C 1191.96,1003.21 1194.79,1000.88 1196,996.5C 1197.66,987.32 1193.82,982.32 1184.5,981.5C 1183.49,967.181 1183.32,952.848 1184,938.5C 1197.07,935.217 1199.9,928.05 1192.5,917C 1190.98,915.991 1189.31,915.491 1187.5,915.5C 1189.79,901.235 1193.29,887.235 1198,873.5C 1202.34,873.017 1206.51,871.851 1210.5,870C 1216.38,862.475 1215.38,855.975 1207.5,850.5C 1213.74,837.008 1221.24,824.342 1230,812.5C 1236.14,815.816 1241.47,814.816 1246,809.5C 1248.6,804.002 1247.76,799.168 1243.5,795C 1252.67,783.167 1263.17,772.667 1275,763.5C 1279.17,767.764 1284,768.597 1289.5,766C 1294.82,761.474 1295.82,756.141 1292.5,750C 1304.67,741.744 1317.34,734.244 1330.5,727.5C 1335.97,735.385 1342.47,736.385 1350,730.5C 1351.81,726.71 1352.98,722.71 1353.5,718.5C 1367.1,713.268 1381.1,709.601 1395.5,707.5C 1397.39,715.452 1402.39,718.286 1410.5,716C 1415.05,713.074 1417.72,708.907 1418.5,703.5 Z"/></g>
<g><path style="opacity:1" fill="#5953b1" d="M 1197.5,958.5 C 1197.5,959.167 1197.5,959.833 1197.5,960.5C 1186.83,959.833 1186.83,959.167 1197.5,958.5 Z"/></g>
<g><path style="opacity:1" fill="#7770bf" d="M 1654.5,835.5 C 1655,833.915 1656,833.415 1657.5,834C 1656.76,835.039 1655.76,835.539 1654.5,835.5 Z"/></g>
<g><path style="opacity:1" fill="#6d64b9" d="M 1226.5,836.5 C 1224.58,836.205 1222.91,835.372 1221.5,834C 1223.67,833.751 1225.33,834.584 1226.5,836.5 Z"/></g>
<g><path style="opacity:1" fill="#6e65ba" d="M 1562.5,746.5 C 1562.79,744.577 1563.63,742.91 1565,741.5C 1565.25,743.668 1564.42,745.335 1562.5,746.5 Z"/></g>
<g><path style="opacity:1" fill="#6e65ba" d="M 1316.5,746.5 C 1314.58,745.335 1313.75,743.668 1314,741.5C 1315.37,742.91 1316.21,744.577 1316.5,746.5 Z"/></g>
<g><path style="opacity:1" fill="#918bcb" d="M 1375.5,720.5 C 1375.5,721.167 1375.5,721.833 1375.5,722.5C 1374.18,719.72 1373.68,716.72 1374,713.5C 1374.98,715.74 1375.48,718.073 1375.5,720.5 Z"/></g>
<g><path style="opacity:1" fill="#11088e" d="M 1438.5,716.5 C 1439.17,716.5 1439.83,716.5 1440.5,716.5C 1443.1,762.665 1445.77,808.832 1448.5,855C 1447.44,872.949 1445.44,890.782 1442.5,908.5C 1444.81,908.993 1447.14,909.326 1449.5,909.5C 1451.53,892.107 1454.03,874.774 1457,857.5C 1472.47,810.748 1488.14,764.082 1504,717.5C 1494.99,766.233 1485.32,814.899 1475,863.5C 1468.73,878.799 1462.57,894.132 1456.5,909.5C 1457.54,911.531 1459.21,912.864 1461.5,913.5C 1468.87,898.098 1475.7,882.431 1482,866.5C 1508.61,826.262 1535.44,786.262 1562.5,746.5C 1541.55,790.391 1520.05,834.058 1498,877.5C 1487.68,890.141 1477.85,903.141 1468.5,916.5C 1470.02,919.353 1472.19,920.353 1475,919.5C 1485.79,905.046 1496.95,890.879 1508.5,877C 1544.3,846.206 1579.8,815.039 1615,783.5C 1615.17,783.833 1615.33,784.167 1615.5,784.5C 1583.78,819.388 1552.61,854.721 1522,890.5C 1507.64,902.356 1493.14,914.023 1478.5,925.5C 1479.56,929.798 1481.9,930.965 1485.5,929C 1497.88,918.95 1510.55,909.283 1523.5,900C 1566.94,877.945 1610.61,856.445 1654.5,835.5C 1614.07,862.891 1573.4,890.058 1532.5,917C 1516.57,923.3 1500.9,930.134 1485.5,937.5C 1486.18,939.547 1487.35,941.214 1489,942.5C 1505.57,936.132 1522.07,929.632 1538.5,923C 1585.16,913.6 1631.83,904.6 1678.5,896C 1632.76,911.136 1587.09,926.469 1541.5,942C 1524.53,944.496 1507.53,946.662 1490.5,948.5C 1490.5,951.167 1490.5,953.833 1490.5,956.5C 1508.4,953.509 1526.4,951.509 1544.5,950.5C 1591.87,952.919 1639.21,955.919 1686.5,959.5C 1634.57,963.829 1582.57,966.662 1530.5,968C 1517.15,966.275 1503.82,964.442 1490.5,962.5C 1489.55,965.068 1489.55,967.568 1490.5,970C 1507.5,972.333 1524.5,974.667 1541.5,977C 1587.02,992.673 1632.68,1007.84 1678.5,1022.5C 1678.16,1023.34 1677.49,1023.67 1676.5,1023.5C 1630.56,1014.15 1584.56,1004.98 1538.5,996C 1521.93,989.699 1505.43,983.199 1489,976.5C 1486.68,978.11 1485.85,980.11 1486.5,982.5C 1501.72,989.276 1517.05,995.776 1532.5,1002C 1572.5,1028.67 1612.5,1055.33 1652.5,1082C 1609.25,1061.87 1566.25,1040.87 1523.5,1019C 1509.97,1008.64 1496.31,998.474 1482.5,988.5C 1479.79,989.914 1478.79,991.914 1479.5,994.5C 1493.81,1005.64 1507.98,1016.98 1522,1028.5C 1552.42,1063.04 1582.58,1097.71 1612.5,1132.5C 1577.71,1102.58 1543.04,1072.42 1508.5,1042C 1496.61,1027.62 1484.95,1013.12 1473.5,998.5C 1469.2,999.564 1468.04,1001.9 1470,1005.5C 1479.33,1017.5 1488.67,1029.5 1498,1041.5C 1520.21,1084.91 1541.54,1128.58 1562,1172.5C 1535.33,1132.5 1508.67,1092.5 1482,1052.5C 1475.66,1036.51 1468.83,1020.84 1461.5,1005.5C 1456.58,1006.61 1455.42,1009.28 1458,1013.5C 1464.28,1028.4 1470.28,1043.4 1476,1058.5C 1484.98,1104.56 1494.15,1150.56 1503.5,1196.5C 1503.5,1197.17 1503.17,1197.5 1502.5,1197.5C 1487.64,1152.08 1472.47,1106.75 1457,1061.5C 1454.56,1044.51 1452.22,1027.51 1450,1010.5C 1447.57,1009.55 1445.07,1009.55 1442.5,1010.5C 1445.36,1027.89 1447.36,1045.39 1448.5,1063C 1445.52,1110.49 1442.85,1157.99 1440.5,1205.5C 1439.83,1205.5 1439.17,1205.5 1438.5,1205.5C 1436.15,1157.99 1433.48,1110.49 1430.5,1063C 1431.64,1045.39 1433.64,1027.89 1436.5,1010.5C 1433.83,1010.5 1431.17,1010.5 1428.5,1010.5C 1426.77,1027.55 1424.6,1044.55 1422,1061.5C 1406.53,1106.75 1391.36,1152.08 1376.5,1197.5C 1375.83,1197.5 1375.5,1197.17 1375.5,1196.5C 1384.89,1149.16 1394.39,1101.83 1404,1054.5C 1410.3,1039.39 1416.47,1024.22 1422.5,1009C 1421.21,1007.35 1419.55,1006.18 1417.5,1005.5C 1410.17,1020.84 1403.34,1036.51 1397,1052.5C 1370.28,1092.38 1343.78,1132.38 1317.5,1172.5C 1317.17,1172.5 1316.83,1172.5 1316.5,1172.5C 1337.45,1128.61 1358.95,1084.94 1381,1041.5C 1391.32,1028.86 1401.15,1015.86 1410.5,1002.5C 1408.98,999.647 1406.81,998.647 1404,999.5C 1393.21,1013.95 1382.05,1028.12 1370.5,1042C 1336.14,1072.17 1301.8,1102.34 1267.5,1132.5C 1267.17,1132.5 1266.83,1132.5 1266.5,1132.5C 1296.42,1097.71 1326.58,1063.04 1357,1028.5C 1371.38,1016.61 1385.88,1004.95 1400.5,993.5C 1399.44,989.202 1397.1,988.035 1393.5,990C 1381.5,999.333 1369.5,1008.67 1357.5,1018C 1314.06,1040.05 1270.39,1061.55 1226.5,1082.5C 1266.26,1055.44 1306.26,1028.61 1346.5,1002C 1362.43,995.7 1378.1,988.866 1393.5,981.5C 1392.86,979.205 1391.53,977.539 1389.5,976.5C 1374.13,982.567 1358.8,988.734 1343.5,995C 1296.19,1004.69 1248.86,1014.19 1201.5,1023.5C 1201.5,1023.17 1201.5,1022.83 1201.5,1022.5C 1246.77,1007.24 1292.11,992.076 1337.5,977C 1354.81,974.317 1372.14,971.817 1389.5,969.5C 1389.33,967.139 1388.99,964.806 1388.5,962.5C 1369.64,965.733 1350.64,967.733 1331.5,968.5C 1286.81,966.082 1242.15,963.415 1197.5,960.5C 1197.5,959.833 1197.5,959.167 1197.5,958.5C 1242.15,955.585 1286.81,952.918 1331.5,950.5C 1350.64,951.267 1369.64,953.267 1388.5,956.5C 1388.5,954.167 1388.5,951.833 1388.5,949.5C 1371.49,947.11 1354.49,944.61 1337.5,942C 1290.76,926.531 1244.09,910.864 1197.5,895C 1246.17,904.267 1294.84,913.934 1343.5,924C 1358.8,930.266 1374.13,936.433 1389.5,942.5C 1391.53,941.461 1392.86,939.795 1393.5,937.5C 1378.1,930.134 1362.43,923.3 1346.5,917C 1306.26,890.391 1266.26,863.558 1226.5,836.5C 1270.39,857.445 1314.06,878.945 1357.5,901C 1370.32,911.708 1383.65,921.375 1397.5,930C 1399.33,928.511 1400.17,926.678 1400,924.5C 1385.38,913.548 1371.05,902.214 1357,890.5C 1326.21,854.704 1295.04,819.204 1263.5,784C 1264.17,783.333 1264.83,783.333 1265.5,784C 1299.94,815.705 1334.94,846.705 1370.5,877C 1382.39,891.38 1394.05,905.88 1405.5,920.5C 1409.8,919.436 1410.96,917.103 1409,913.5C 1399.67,901.5 1390.33,889.5 1381,877.5C 1358.95,834.058 1337.45,790.391 1316.5,746.5C 1343.56,786.262 1370.39,826.262 1397,866.5C 1403.3,882.431 1410.13,898.098 1417.5,913.5C 1419.79,912.864 1421.46,911.531 1422.5,909.5C 1416.43,894.132 1410.27,878.799 1404,863.5C 1394.59,816.459 1385.09,769.459 1375.5,722.5C 1375.5,721.833 1375.5,721.167 1375.5,720.5C 1391.46,765.883 1406.96,811.55 1422,857.5C 1424.9,874.451 1427.4,891.451 1429.5,908.5C 1431.83,908.5 1434.17,908.5 1436.5,908.5C 1433.47,890.459 1431.47,872.292 1430.5,854C 1433.27,808.167 1435.94,762.334 1438.5,716.5 Z"/></g>
<g><path style="opacity:1" fill="#635eb6" d="M 1440.5,716.5 C 1439.83,716.5 1439.17,716.5 1438.5,716.5C 1439.17,705.833 1439.83,705.833 1440.5,716.5 Z"/></g>
<g><path style="opacity:1" fill="#9995d0" d="M 1201.5,1022.5 C 1201.5,1022.83 1201.5,1023.17 1201.5,1023.5C 1199.09,1024.93 1196.42,1025.43 1193.5,1025C 1196.2,1024.16 1198.87,1023.33 1201.5,1022.5 Z"/></g>
<g><path style="opacity:1" fill="#9996d0" d="M 1678.5,1022.5 C 1680.51,1023.23 1682.51,1024.06 1684.5,1025C 1681.64,1025.19 1678.97,1024.69 1676.5,1023.5C 1677.49,1023.67 1678.16,1023.34 1678.5,1022.5 Z"/></g>
<g><path style="opacity:1" fill="#6a60b8" d="M 1226.5,1082.5 C 1225.33,1084.42 1223.67,1085.25 1221.5,1085C 1222.91,1083.63 1224.58,1082.79 1226.5,1082.5 Z"/></g>
<g><path style="opacity:1" fill="#7770bf" d="M 1654.5,1084.5 C 1655.5,1083.29 1656.5,1083.45 1657.5,1085C 1656.42,1085.47 1655.42,1085.3 1654.5,1084.5 Z"/></g>
<g><path style="opacity:1" fill="#7060b7" d="M 1612.5,1132.5 C 1614.34,1132.64 1614.67,1133.31 1613.5,1134.5C 1612.7,1134.04 1612.37,1133.38 1612.5,1132.5 Z"/></g>
<g><path style="opacity:1" fill="#988dcd" d="M 1266.5,1132.5 C 1266.83,1132.5 1267.17,1132.5 1267.5,1132.5C 1265.8,1135.39 1263.46,1137.23 1260.5,1138C 1262.37,1135.96 1264.37,1134.13 1266.5,1132.5 Z"/></g>
<g><path style="opacity:1" fill="#665db6" d="M 1316.5,1172.5 C 1316.83,1172.5 1317.17,1172.5 1317.5,1172.5C 1316.34,1174.14 1315.18,1175.8 1314,1177.5C 1313.75,1175.33 1314.58,1173.67 1316.5,1172.5 Z"/></g>
<g><path style="opacity:1" fill="#766fbe" d="M 1563.5,1174.5 C 1565.08,1175 1565.58,1176 1565,1177.5C 1563.96,1176.76 1563.46,1175.76 1563.5,1174.5 Z"/></g>
<g><path style="opacity:1" fill="#9792ce" d="M 1375.5,1196.5 C 1375.5,1197.17 1375.83,1197.5 1376.5,1197.5C 1375.77,1200.18 1374.94,1202.85 1374,1205.5C 1373.68,1202.28 1374.18,1199.28 1375.5,1196.5 Z"/></g>
<g><path style="opacity:1" fill="#9893cf" d="M 1503.5,1196.5 C 1504.82,1199.28 1505.32,1202.28 1505,1205.5C 1504.06,1202.85 1503.23,1200.18 1502.5,1197.5C 1503.17,1197.5 1503.5,1197.17 1503.5,1196.5 Z"/></g>
<g><path style="opacity:1" fill="#b4b2dc" d="M 1438.5,1205.5 C 1439.17,1205.5 1439.83,1205.5 1440.5,1205.5C 1439.83,1216.17 1439.17,1216.17 1438.5,1205.5 Z"/></g>
<g><path style="opacity:1" fill="#046a37" d="M -0.5,1279.5 C 959.5,1279.5 1919.5,1279.5 2879.5,1279.5C 2879.5,1492.83 2879.5,1706.17 2879.5,1919.5C 1919.5,1919.5 959.5,1919.5 -0.5,1919.5C -0.5,1706.17 -0.5,1492.83 -0.5,1279.5 Z"/></g>
</svg>
